<?xml version="1.0" encoding="UTF-8"?>
<svg width="64px" height="64px" viewBox="0 0 64 64" version="1.1" xmlns="http://www.w3.org/2000/svg" xmlns:xlink="http://www.w3.org/1999/xlink">
    <!-- Generator: Sketch 49.3 (51167) - http://www.bohemiancoding.com/sketch -->
    <title>Untitled</title>
    <desc>Created with Sketch.</desc>
    <defs></defs>
    <g id="Page-1" stroke="none" stroke-width="1" fill="none" fill-rule="evenodd">
        <g id="icon" fill-rule="nonzero">
            <circle id="Oval" fill="#284A9F" cx="32" cy="32" r="32"></circle>
            <g id="Group" transform="translate(12.000000, 15.000000)">
                <g id="Shape" opacity="0.378725091" transform="translate(0.000000, 1.000000)" fill="#000000">
                    <path d="M37.5,5.16634375 L32.5,5.16634375 C32.5,5.16634375 31.055,5.16634375 30,2.5826875 C29.463,1.26809375 28.88,0 27.5,0 L17.5,0 C16.12,0 15.52,1.26034375 15,2.58365625 C13.985,5.1673125 12.5,5.1673125 12.5,5.1673125 L10,5.1673125 C10,3.7413125 8.88,2.58365625 7.5,2.58365625 L5,2.58365625 C3.62,2.58365625 2.5,3.7413125 2.5,5.1673125 C1.12,5.1673125 0,6.32496875 0,7.75096875 L0,28.4173125 C0,29.8423438 1.12,31 2.5,31 L37.5,31 C38.88,31 40,29.8423438 40,28.4163437 L40,7.75 C40,6.324 38.88,5.16634375 37.5,5.16634375 Z" style="mix-blend-mode: darken;"></path>
                </g>
                <path d="M37.5,5 L32.5,5 C32.5,5 31.055,5.333 30,2.667 C29.463,1.309 28.88,0 27.5,0 L17.5,0 C16.12,0 15.52,1.301 15,2.667 C13.985,5.333 12.5,5 12.5,5 L10,5 C10,3.528 8.88,3 7.5,3 L5,3 C3.62,3 2.5,3.528 2.5,5 C1.12,5 0,6.528 0,8 L0,29.333 C0,30.805 1.12,32 2.5,32 L37.5,32 C38.88,32 40,30.805 40,29.333 L40,8 C40,6.528 38.88,5 37.5,5 Z" id="Shape" fill="#565656" opacity="0"></path>
                <circle id="Oval" fill="#24488E" cx="22" cy="18" r="9"></circle>
                <g id="Shape" opacity="0.2" transform="translate(12.000000, 8.000000)" fill="#231F20">
                    <g id="Group">
                        <path d="M11,22 C4.935,22 0,17.065 0,11 C0,4.935 4.935,0 11,0 C17.065,0 22,4.935 22,11 C22,17.065 17.065,22 11,22 Z M11,4 C7.141,4 4,7.141 4,11 C4,14.859 7.141,18 11,18 C14.859,18 18,14.859 18,11 C18,7.141 14.859,4 11,4 Z" id="Shape"></path>
                    </g>
                </g>
                <path d="M22,28.5 C16.21,28.5 11.5,23.79 11.5,18 C11.5,12.21 16.21,7.5 22,7.5 C27.79,7.5 32.5,12.21 32.5,18 C32.5,23.79 27.79,28.5 22,28.5 Z M22,10.5 C17.864,10.5 14.5,13.864 14.5,18 C14.5,22.136 17.864,25.5 22,25.5 C26.136,25.5 29.5,22.136 29.5,18 C29.5,13.864 26.136,10.5 22,10.5 Z" id="Shape" fill="#FFFFFF"></path>
            </g>
        </g>
    </g>
</svg>