<?xml version="1.0" encoding="UTF-8"?>
<svg width="64px" height="64px" viewBox="0 0 64 64" version="1.1" xmlns="http://www.w3.org/2000/svg" xmlns:xlink="http://www.w3.org/1999/xlink">
    <!-- Generator: Sketch 48.2 (47327) - http://www.bohemiancoding.com/sketch -->
    <title>Untitled</title>
    <desc>Created with Sketch.</desc>
    <defs>
        <linearGradient x1="42.5983429%" y1="26.9790649%" x2="86.3620758%" y2="87.5137329%" id="linearGradient-1">
            <stop stop-color="#E6B7B7" offset="0%"></stop>
            <stop stop-color="#5E6EE0" offset="100%"></stop>
        </linearGradient>
    </defs>
    <g id="Page-1" stroke="none" stroke-width="1" fill="none" fill-rule="evenodd">
        <g id="icon" fill-rule="nonzero">
            <circle id="Oval" fill="url(#linearGradient-1)" cx="32" cy="32" r="32"></circle>
            <g id="Group" transform="translate(12.000000, 15.000000)">
                <g opacity="0.2" transform="translate(0.000000, 2.000000)" fill="#231F20" id="Shape">
                    <path d="M37.5,5.333 L32.5,5.333 C32.5,5.333 31.055,5.333 30,2.666 C29.463,1.309 28.88,0 27.5,0 L17.5,0 C16.12,0 15.52,1.301 15,2.667 C13.985,5.334 12.5,5.334 12.5,5.334 L10,5.334 C10,3.862 8.88,2.667 7.5,2.667 L5,2.667 C3.62,2.667 2.5,3.862 2.5,5.334 C1.12,5.334 0,6.529 0,8.001 L0,29.334 C0,30.805 1.12,32 2.5,32 L37.5,32 C38.88,32 40,30.805 40,29.333 L40,8 C40,6.528 38.88,5.333 37.5,5.333 Z"></path>
                </g>
                <path d="M37.5,5 L32.5,5 C32.5,5 31.055,5.333 30,2.667 C29.463,1.309 28.88,0 27.5,0 L17.5,0 C16.12,0 15.52,1.301 15,2.667 C13.985,5.333 12.5,5 12.5,5 L10,5 C10,3.528 8.88,3 7.5,3 L5,3 C3.62,3 2.5,3.528 2.5,5 C1.12,5 0,6.528 0,8 L0,29.333 C0,30.805 1.12,32 2.5,32 L37.5,32 C38.88,32 40,30.805 40,29.333 L40,8 C40,6.528 38.88,5 37.5,5 Z" id="Shape" fill="#465061"></path>
                <circle id="Oval" fill="#77B3D4" cx="22" cy="18" r="9"></circle>
                <g opacity="0.2" transform="translate(11.000000, 9.000000)" fill="#231F20" id="Shape">
                    <g>
                        <path d="M11,22 C4.935,22 0,17.065 0,11 C0,4.935 4.935,0 11,0 C17.065,0 22,4.935 22,11 C22,17.065 17.065,22 11,22 Z M11,4 C7.141,4 4,7.141 4,11 C4,14.859 7.141,18 11,18 C14.859,18 18,14.859 18,11 C18,7.141 14.859,4 11,4 Z"></path>
                    </g>
                </g>
                <path d="M22,28.5 C16.21,28.5 11.5,23.79 11.5,18 C11.5,12.21 16.21,7.5 22,7.5 C27.79,7.5 32.5,12.21 32.5,18 C32.5,23.79 27.79,28.5 22,28.5 Z M22,10.5 C17.864,10.5 14.5,13.864 14.5,18 C14.5,22.136 17.864,25.5 22,25.5 C26.136,25.5 29.5,22.136 29.5,18 C29.5,13.864 26.136,10.5 22,10.5 Z" id="Shape" fill="#FFFFFF"></path>
            </g>
        </g>
    </g>
</svg>