<?xml version="1.0" encoding="iso-8859-1"?>
<!-- Generator: Adobe Illustrator 19.0.0, SVG Export Plug-In . SVG Version: 6.00 Build 0)  -->
<svg version="1.1" id="Layer_1" xmlns="http://www.w3.org/2000/svg" xmlns:xlink="http://www.w3.org/1999/xlink" x="0px" y="0px"
	 viewBox="0 0 512 512" style="enable-background:new 0 0 512 512;" xml:space="preserve">
<circle style="fill:#FFEDB5;" cx="256" cy="256" r="256"/>
<path style="fill:#FEE187;" d="M119.72,335.913l175.026,173.172C405.78,492.227,493.371,404.042,509.368,292.73L393.135,176.795
	L119.72,335.913z"/>
<path style="fill:#4C4C4C;" d="M379.114,170.667h-80.448l-9.761-19.523c-2.734-5.468-8.323-8.921-14.436-8.921h-36.938
	c-6.113,0-11.702,3.455-14.436,8.921l-9.762,19.523h-80.45c-10.552,0-19.106,8.554-19.106,19.106v132.453
	c0,10.554,8.554,19.108,19.106,19.108h246.231c10.552,0,19.106-8.554,19.106-19.106V189.774
	C398.222,179.221,389.668,170.667,379.114,170.667z"/>
<path style="fill:#333333;" d="M379.114,170.667h-80.448l-9.761-19.521c-2.734-5.468-8.323-8.923-14.436-8.923h-19.618v199.111
	h124.264c10.552,0,19.106-8.554,19.106-19.106V189.774C398.222,179.221,389.668,170.667,379.114,170.667z"/>
<circle style="fill:#71E2EF;" cx="284.444" cy="256" r="76.714"/>
<path style="fill:#38C6D9;" d="M284.444,179.286c42.368,0,76.714,34.345,76.714,76.714s-34.345,76.714-76.714,76.714V179.286z"/>
<circle style="fill:#2D2D2D;" cx="284.444" cy="256" r="56.889"/>
<path style="fill:#161616;" d="M284.444,199.111c31.418,0,56.889,25.471,56.889,56.889s-25.471,56.889-56.889,56.889V199.111z"/>
<circle style="fill:#878787;" cx="149.118" cy="200.835" r="14.222"/>
<g>
	<circle style="fill:#FFFFFF;" cx="247.38" cy="219.798" r="11.205"/>
	<circle style="fill:#FFFFFF;" cx="301.684" cy="273.239" r="18.101"/>
</g>
<g>
</g>
<g>
</g>
<g>
</g>
<g>
</g>
<g>
</g>
<g>
</g>
<g>
</g>
<g>
</g>
<g>
</g>
<g>
</g>
<g>
</g>
<g>
</g>
<g>
</g>
<g>
</g>
<g>
</g>
</svg>
