<?xml version="1.0" ?><svg enable-background="new 0 0 64 64" height="64px" version="1.1" viewBox="0 0 64 64" width="64px" xml:space="preserve" xmlns="http://www.w3.org/2000/svg" xmlns:xlink="http://www.w3.org/1999/xlink"><g id="Layer_1"><g><circle cx="32" cy="32" fill="#E0995E" r="32"/></g><g><g opacity="0.2"><path d="M49.5,22.333h-5c0,0-1.445,0-2.5-2.667C41.463,18.309,40.88,17,39.5,17h-10c-1.38,0-1.98,1.301-2.5,2.667     c-1.015,2.667-2.5,2.667-2.5,2.667H22c0-1.472-1.12-2.667-2.5-2.667H17c-1.38,0-2.5,1.195-2.5,2.667c-1.38,0-2.5,1.195-2.5,2.667     v21.333C12,47.805,13.12,49,14.5,49h35c1.38,0,2.5-1.195,2.5-2.667V25C52,23.528,50.88,22.333,49.5,22.333z" fill="#231F20"/></g><g><path d="M49.5,20h-5c0,0-1.445,0.333-2.5-2.333C41.463,16.309,40.88,15,39.5,15h-10c-1.38,0-1.98,1.301-2.5,2.667     C25.985,20.333,24.5,20,24.5,20H22c0-1.472-1.12-2-2.5-2H17c-1.38,0-2.5,0.528-2.5,2c-1.38,0-2.5,1.528-2.5,3v21.333     C12,45.805,13.12,47,14.5,47h35c1.38,0,2.5-1.195,2.5-2.667V23C52,21.528,50.88,20,49.5,20z" fill="#4F5D73"/></g><g><circle cx="34" cy="33" fill="#77B3D4" r="9"/></g><g opacity="0.2"><g><path d="M34,46c-6.065,0-11-4.935-11-11s4.935-11,11-11s11,4.935,11,11S40.065,46,34,46z M34,28      c-3.859,0-7,3.141-7,7s3.141,7,7,7s7-3.141,7-7S37.859,28,34,28z" fill="#231F20"/></g></g><g><path d="M34,43.5c-5.79,0-10.5-4.71-10.5-10.5S28.21,22.5,34,22.5S44.5,27.21,44.5,33S39.79,43.5,34,43.5z      M34,25.5c-4.136,0-7.5,3.364-7.5,7.5s3.364,7.5,7.5,7.5s7.5-3.364,7.5-7.5S38.136,25.5,34,25.5z" fill="#FFFFFF"/></g></g></g><g id="Layer_2"/></svg>