<svg width="305" height="305" viewBox="0 0 305 305" fill="none" xmlns="http://www.w3.org/2000/svg">
<mask id="mask0_13_870" style="mask-type:alpha" maskUnits="userSpaceOnUse" x="0" y="0" width="305" height="305">
<path d="M0 152.5C0 26.9162 26.9162 0 152.5 0C278.084 0 305 26.9162 305 152.5C305 278.084 278.084 305 152.5 305C26.9162 305 0 278.084 0 152.5Z" fill="#C4C4C4"/>
</mask>
<g mask="url(#mask0_13_870)">
<rect width="305" height="305" transform="translate(-1)" fill="#FACA30"/>
<path d="M153.698 187.374C137.937 187.374 125.151 174.525 125.151 158.674C125.157 142.829 137.942 129.98 153.703 129.98C169.382 130.194 182.037 142.917 182.25 158.68C182.244 174.525 169.464 187.374 153.698 187.374ZM239.999 204.753C239.906 217.772 229.434 228.301 216.484 228.394H88.5163C82.2656 228.444 76.2555 225.964 71.8368 221.522C67.4181 217.079 64.9462 211.037 65.0009 204.753V122.283C65.0939 109.264 75.5664 98.7349 88.5163 98.6414H108.75L113.125 85.996C115.86 79.5633 122.034 75.2859 128.985 75H176.015C182.966 75.2859 189.14 79.5633 191.875 85.996L196.25 99.1912H216.484C222.735 99.1417 228.745 101.621 233.163 106.064C237.582 110.506 240.048 116.548 239.999 122.833V204.753ZM86.8748 140.976C92.9154 140.976 97.8122 136.053 97.8122 129.98C97.8122 123.907 92.9154 118.984 86.8748 118.984C80.8342 118.984 75.9374 123.907 75.9374 129.98C75.9374 136.053 80.8342 140.976 86.8748 140.976ZM197.945 158.322C197.945 133.559 177.984 113.486 153.353 113.486C128.717 113.486 108.75 133.559 108.75 158.322C108.75 183.085 128.717 203.164 153.348 203.164C165.182 203.18 176.535 198.458 184.902 190.046C193.269 181.634 197.961 170.22 197.95 158.322H197.945Z" fill="black"/>
</g>
</svg>
