<?xml version="1.0" encoding="UTF-8"?>
<svg width="200px" height="200px" viewBox="0 0 200 200" version="1.1" xmlns="http://www.w3.org/2000/svg" xmlns:xlink="http://www.w3.org/1999/xlink">
    <!-- Generator: Sketch 52.2 (67145) - http://www.bohemiancoding.com/sketch -->
    <title>icon_webpage</title>
    <desc>Created with Sketch.</desc>
    <defs>
        <circle id="path-1" cx="100" cy="100" r="100"></circle>
    </defs>
    <g id="Page-1" stroke="none" stroke-width="1" fill="none" fill-rule="evenodd">
        <g id="icon_webpage">
            <mask id="mask-2" fill="white">
                <use xlink:href="#path-1"></use>
            </mask>
            <use id="Oval" fill="#284A9F" xlink:href="#path-1"></use>
            <polygon id="Path-2" fill="#1D3778" mask="url(#mask-2)" points="45.5180664 149.892578 131.668945 206.874512 192.240263 182.44596 207.838867 116.241699 154.560547 66.496582"></polygon>
            <path d="M101.834988,125.385758 C90.8474638,125.385758 81.9339208,116.423112 81.9339208,105.366498 C81.9377333,94.3137185 90.8512762,85.3510728 101.8388,85.3510728 C112.769137,85.500642 121.591181,94.3750802 121.739867,105.370333 C121.736054,116.423112 112.826324,125.385758 101.834988,125.385758 Z M161.999496,137.508532 C161.934684,146.590066 154.633814,153.934296 145.605897,153.999493 L56.3942185,153.999493 C52.0365711,154.034009 47.8466722,152.304376 44.7662005,149.205609 C41.6857289,146.106842 39.9624948,141.892059 40.0006194,137.508532 L40.0006194,79.9819226 C40.0654313,70.9003886 47.3663016,63.5561581 56.3942185,63.4909613 L70.5003386,63.4909613 L73.5503105,54.6702146 C75.456543,50.183139 79.7608158,47.1994256 84.6064587,47 L117.393657,47 C122.2393,47.1994256 126.543573,50.183139 128.449805,54.6702146 L131.499777,63.874472 L145.605897,63.874472 C149.963544,63.8399561 154.153443,65.5695895 157.233915,68.6683561 C160.314387,71.7671228 162.033808,75.9819057 161.999496,80.3654333 L161.999496,137.508532 Z M55.2498596,93.0212874 C59.460992,93.0212874 62.8747894,89.5872153 62.8747894,85.3510728 C62.8747894,81.1149303 59.460992,77.6808582 55.2498596,77.6808582 C51.0387272,77.6808582 47.6249298,81.1149303 47.6249298,85.3510728 C47.6249298,89.5872153 51.0387272,93.0212874 55.2498596,93.0212874 Z M132.681641,105.121051 C132.681641,87.8477277 118.766144,73.845751 101.594802,73.845751 C84.4196479,73.845751 70.5003386,87.8477277 70.5003386,105.121051 C70.5003386,122.394374 84.4196479,136.400186 101.59099,136.400186 C109.841164,136.411691 117.755841,133.117334 123.588912,127.24962 C129.421984,121.381906 132.693078,113.420223 132.685454,105.121051 L132.681641,105.121051 Z" id="Shape" fill="#FFFFFF" fill-rule="nonzero" mask="url(#mask-2)"></path>
        </g>
    </g>
</svg>