<svg width="32" height="28" viewBox="0 0 32 28" xmlns="http://www.w3.org/2000/svg">
    <path d="M21.439 15.22c0 2.882-2.337 5.219-5.22 5.219-2.882 0-5.22-2.337-5.22-5.22C11 12.337 13.338 10 16.22 10c2.867.039 5.181 2.353 5.22 5.22zM32 8.7v14.9c-.017 2.368-1.932 4.283-4.3 4.3H4.3c-1.143.009-2.242-.442-3.05-1.25C.442 25.842-.01 24.743 0 23.6v-15c.017-2.368 1.932-4.283 4.3-4.3H8L8.8 2C9.3.83 10.429.052 11.7 0h8.6c1.271.052 2.4.83 2.9 2l.8 2.4h3.7c1.143-.009 2.242.442 3.05 1.25.808.808 1.259 1.907 1.25 3.05zm-7.69 6.455C24.31 10.651 20.66 7 16.156 7 11.651 7 8 10.651 8 15.155s3.651 8.156 8.155 8.156c2.164.003 4.24-.856 5.77-2.386 1.53-1.53 2.388-3.606 2.386-5.77z" fill="#A9A0A0" fill-rule="nonzero"/>
</svg>
